<svg xmlns="http://www.w3.org/2000/svg" viewBox="0 0 650 650">
  <style>
    .rf { fill: #ffffff; }
    @media (prefers-color-scheme: light) {
      .rf { fill: #0a0a0a; }
    }
  </style>
  <g class="rf" transform="translate(0,650) scale(0.1,-0.1)">
    <path d="M827 4872 c-16 -3 -17 -81 -17 -1045 0 -1067 2 -1106 39 -1270 23 -101 75 -246 121 -337 125 -251 268 -418 478 -560 57 -39 107 -70 113 -70 5 0 9 183 9 475 l0 475 93 0 94 0 53 -87 c82 -136 268 -441 313 -513 87 -140 118 -191 212 -345 135 -222 183 -268 303 -294 74 -15 782 -15 782 0 0 6 -88 149 -196 318 -108 168 -222 346 -253 394 -31 49 -107 166 -168 260 -62 95 -113 175 -113 178 0 3 17 11 38 17 58 17 207 97 281 149 36 26 104 85 151 133 227 228 350 527 350 844 0 142 -12 221 -51 343 -65 207 -161 365 -314 518 -205 205 -462 335 -785 396 -46 9 -278 14 -791 18 -399 3 -733 5 -742 3z m1478 -795 c195 -56 329 -171 386 -333 28 -80 28 -223 0 -314 -40 -128 -134 -237 -256 -295 -124 -60 -163 -65 -526 -65 l-326 0 -6 58 c-8 85 -10 949 -2 962 5 8 105 10 338 8 275 -3 342 -7 392 -21z"/>
    <path d="M4295 4863 c-229 -28 -445 -93 -659 -199 -106 -54 -236 -138 -236 -154 0 -5 19 -32 42 -62 121 -153 225 -359 294 -583 60 -192 57 -129 63 -1400 l6 -1170 95 1 c169 1 299 57 334 145 15 38 18 104 21 603 2 309 4 564 4 569 1 4 220 7 489 7 279 0 515 4 552 10 171 27 312 150 356 312 15 55 39 442 29 459 -4 6 -271 9 -713 9 l-707 -1 -3 346 -2 345 750 0 750 0 0 385 0 385 -717 -1 c-395 -1 -731 -4 -748 -6z"/>
  </g>
</svg>
